<svg xmlns="http://www.w3.org/2000/svg" xmlns:xlink="http://www.w3.org/1999/xlink" version="1.1" x="0px" y="0px" viewBox="0 0 100 125" style="enable-background:new 0 0 100 100;" xml:space="preserve"><g><path d="M39.81,22.874H19.416l5.221-6.526h20.395L39.81,22.874z M76.535,22.385c5.695-3.195,7.723-10.4,4.528-16.095   c-3.194-5.696-10.401-7.723-16.097-4.527s-7.724,10.402-4.527,16.097C63.633,23.554,70.84,25.58,76.535,22.385z M5.221,43.269   L0,49.794h20.395l5.221-6.526H5.221z M34.426,29.808H14.031l-5.221,6.526h20.395L34.426,29.808z M95.77,45.092l-13.863-0.568   l-9.775-17.321l-6.841-3.901c-1.167-0.608-5.213-2.95-9.219,0.235L30.472,44.822c-1.914,1.769-3.115,4.467-0.587,7.373   c1.759,1.97,4.8,1.784,6.658,0.353l17.164-15.438l-2.222,14.038L41.098,70.1l-15.215,8.133c-4.612,3.348-2.754,7.134-2,8.183   c1.129,1.578,4.284,3.838,7.965,1.556l19.155-11.597l7.26-13.383L71.08,73.338l-0.747,21.148c0.096,3.261,3.005,5.246,5.55,5.266   c3.316-0.082,5.404-2.172,5.709-5.765l0.592-17.76c0.09-3.346,0.771-7.458-1.706-9.61L67.564,55.096l2.34-11.837l7.715,10.687   l17.066,0.809c3.572,0.132,5.166-2.497,5.295-4.683C100.24,47.458,97.866,45.382,95.77,45.092z"/></g><text x="0" y="115" fill="#000000" font-size="5px" font-weight="bold" font-family="'Helvetica Neue', Helvetica, Arial-Unicode, Arial, Sans-serif">Created by b farias</text><text x="0" y="120" fill="#000000" font-size="5px" font-weight="bold" font-family="'Helvetica Neue', Helvetica, Arial-Unicode, Arial, Sans-serif">from the Noun Project</text></svg>