<svg xmlns:dc="http://purl.org/dc/elements/1.1/" xmlns:cc="http://creativecommons.org/ns#" xmlns:rdf="http://www.w3.org/1999/02/22-rdf-syntax-ns#" xmlns:svg="http://www.w3.org/2000/svg" xmlns="http://www.w3.org/2000/svg" xmlns:sodipodi="http://sodipodi.sourceforge.net/DTD/sodipodi-0.dtd" xmlns:inkscape="http://www.inkscape.org/namespaces/inkscape" version="1.1" x="0px" y="0px" viewBox="0 0 100 125"><g transform="translate(0,-952.36218)"><path style="font-size:medium;font-style:normal;font-variant:normal;font-weight:normal;font-stretch:normal;text-indent:0;text-align:start;text-decoration:none;line-height:normal;letter-spacing:normal;word-spacing:normal;text-transform:none;direction:ltr;block-progression:tb;writing-mode:lr-tb;text-anchor:start;baseline-shift:baseline;opacity:1;color:#000000;fill:#000000;fill-opacity:1;stroke:none;stroke-width:16;marker:none;visibility:visible;display:inline;overflow:visible;enable-background:accumulate;font-family:Sans;-inkscape-font-specification:Sans" d="M 49.9375 1.9375 A 4.0004 4.0004 0 0 0 46 6 L 46 11.1875 C 27.701226 13.068371 13.068371 27.701223 11.1875 46 L 6 46 A 4.0004 4.0004 0 0 0 5.59375 46 A 4.0051542 4.0051542 0 1 0 6 54 L 11.1875 54 C 13.068371 72.298757 27.701226 86.931626 46 88.8125 L 46 94 A 4.0004 4.0004 0 1 0 54 94 L 54 88.8125 C 72.298774 86.931626 86.931629 72.298757 88.8125 54 L 94 54 A 4.0004 4.0004 0 1 0 94 46 L 88.8125 46 C 86.931629 27.701223 72.298774 13.068371 54 11.1875 L 54 6 A 4.0004 4.0004 0 0 0 49.9375 1.9375 z M 46 19.25 L 46 30 A 4.0004 4.0004 0 1 0 54 30 L 54 19.25 C 67.953902 21.036165 78.963834 32.046095 80.75 46 L 70 46 A 4.0004 4.0004 0 0 0 69.59375 46 A 4.0051542 4.0051542 0 1 0 70 54 L 80.75 54 C 78.963834 67.953899 67.953902 78.963834 54 80.75 L 54 70 A 4.0004 4.0004 0 0 0 49.9375 65.9375 A 4.0004 4.0004 0 0 0 46 70 L 46 80.75 C 32.046098 78.963834 21.036166 67.953899 19.25 54 L 30 54 A 4.0004 4.0004 0 1 0 30 46 L 19.25 46 C 21.036166 32.046095 32.046098 21.036165 46 19.25 z " transform="translate(0,952.36218)"/></g><text x="0" y="115" fill="#000000" font-size="5px" font-weight="bold" font-family="'Helvetica Neue', Helvetica, Arial-Unicode, Arial, Sans-serif">Created by scarlett mckay</text><text x="0" y="120" fill="#000000" font-size="5px" font-weight="bold" font-family="'Helvetica Neue', Helvetica, Arial-Unicode, Arial, Sans-serif">from the Noun Project</text></svg>