<svg xmlns="http://www.w3.org/2000/svg" viewBox="0 0 64 80" x="0px" y="0px"><g><path d="M61,27H56V26a1,1,0,0,0-1-1H34V18a1,1,0,0,0-1-1H19a1,1,0,0,0-1,1v7H3a1,1,0,0,0-1,1V38a1,1,0,0,0,1.243.97L18,35.281V42a1,1,0,0,0,1,1h4a1,1,0,0,0,1-1V35h2.153l1.861,11.165A1,1,0,0,0,29,47h6a1,1,0,0,0,.986-1.165L34.18,35H55a1,1,0,0,0,1-1V33h5a1,1,0,0,0,1-1V28A1,1,0,0,0,61,27ZM20,33V27H32v6Zm8-8H24V23h4Zm-8-6H32v6H30V22a1,1,0,0,0-1-1H23a1,1,0,0,0-1,1v3H20ZM4,27H18v6.219l-14,3.5ZM22,41H20V35h2Zm7.847,4L28.181,35h3.972l1.666,10ZM54,33H52V29H50v4H48V29H46v4H44V29H42v4H34V27H54Zm6-2H56V29h4Z"/><path d="M61,27H56V26a1,1,0,0,0-1-1H34V18a1,1,0,0,0-1-1H19a1,1,0,0,0-1,1v7H3a1,1,0,0,0-1,1V38a1,1,0,0,0,1.243.97L18,35.281V42a1,1,0,0,0,1,1h4a1,1,0,0,0,1-1V35h2.153l1.861,11.165A1,1,0,0,0,29,47h6a1,1,0,0,0,.986-1.165L34.18,35H55a1,1,0,0,0,1-1V33h5a1,1,0,0,0,1-1V28A1,1,0,0,0,61,27ZM20,33V27H32v6Zm8-8H24V23h4Zm-8-6H32v6H30V22a1,1,0,0,0-1-1H23a1,1,0,0,0-1,1v3H20ZM4,27H18v6.219l-14,3.5ZM22,41H20V35h2Zm7.847,4L28.181,35h3.972l1.666,10ZM54,33H52V29H50v4H48V29H46v4H44V29H42v4H34V27H54Zm6-2H56V29h4Z"/><rect x="28" y="29" width="2" height="2"/><rect x="28" y="29" width="2" height="2"/><rect x="24" y="29" width="2" height="2"/><rect x="24" y="29" width="2" height="2"/><path d="M6,30v4H8V31h6V29H7A1,1,0,0,0,6,30Z"/><path d="M6,30v4H8V31h6V29H7A1,1,0,0,0,6,30Z"/></g><text x="0" y="79" fill="#000000" font-size="5px" font-weight="bold" font-family="'Helvetica Neue', Helvetica, Arial-Unicode, Arial, Sans-serif">Created by Smalllike</text><text x="0" y="84" fill="#000000" font-size="5px" font-weight="bold" font-family="'Helvetica Neue', Helvetica, Arial-Unicode, Arial, Sans-serif">from the Noun Project</text></svg>