<svg xmlns="http://www.w3.org/2000/svg" xmlns:xlink="http://www.w3.org/1999/xlink" version="1.1" x="0px" y="0px" viewBox="0 0 100 125" enable-background="new 0 0 100 100" xml:space="preserve"><g><rect x="7.979" y="17.717" width="26.779" height="8.813"/><rect x="36.594" y="17.717" width="26.78" height="8.813"/><rect x="65.177" y="17.717" width="26.779" height="8.813"/><rect x="7.996" y="39.887" width="26.779" height="8.813"/><rect x="36.61" y="39.887" width="26.779" height="8.813"/><rect x="65.192" y="39.887" width="26.779" height="8.813"/><rect x="8.028" y="62.14" width="26.779" height="8.813"/><rect x="36.643" y="62.14" width="26.778" height="8.813"/><rect x="65.224" y="62.14" width="26.779" height="8.813"/><rect x="23.204" y="28.717" width="26.78" height="8.813"/><rect x="51.787" y="28.717" width="26.779" height="8.813"/><rect x="7.979" y="28.717" width="13.39" height="8.813"/><rect x="80.45" y="28.717" width="11.506" height="8.813"/><rect x="23.252" y="50.971" width="26.78" height="8.813"/><rect x="51.835" y="50.971" width="26.779" height="8.813"/><rect x="8.027" y="50.971" width="13.39" height="8.813"/><rect x="80.497" y="50.971" width="11.506" height="8.813"/><rect x="23.269" y="73.471" width="26.78" height="8.813"/><rect x="51.852" y="73.471" width="26.778" height="8.813"/><rect x="8.044" y="73.471" width="13.39" height="8.813"/><rect x="80.515" y="73.471" width="11.506" height="8.813"/></g><text x="0" y="115" fill="#000000" font-size="5px" font-weight="bold" font-family="'Helvetica Neue', Helvetica, Arial-Unicode, Arial, Sans-serif">Created by Abhimanyu Bose</text><text x="0" y="120" fill="#000000" font-size="5px" font-weight="bold" font-family="'Helvetica Neue', Helvetica, Arial-Unicode, Arial, Sans-serif">from the Noun Project</text></svg>