<svg width="65" height="65" viewBox="0 0 65 65" fill="none" xmlns="http://www.w3.org/2000/svg">
<path d="M47.005 0.000183409C46.8086 0.0032531 46.6147 0.0450444 46.4344 0.123171C46.2541 0.201297 46.0909 0.314229 45.9541 0.455518C45.8174 0.596806 45.7098 0.763684 45.6375 0.946624C45.5651 1.12956 45.5295 1.32498 45.5326 1.52172V3.4646C38.6895 4.16905 33.2173 9.64952 32.5139 16.503H30.574C30.5234 16.5004 30.4727 16.5004 30.4221 16.503C30.2256 16.513 30.033 16.5616 29.8553 16.6461C29.6776 16.7306 29.5183 16.8493 29.3864 16.9955C29.2545 17.1417 29.1527 17.3125 29.0867 17.4981C29.0208 17.6837 28.992 17.8805 29.0019 18.0772C29.0119 18.274 29.0605 18.4668 29.1449 18.6448C29.2293 18.8227 29.3479 18.9823 29.4939 19.1143C29.6398 19.2464 29.8104 19.3484 29.9957 19.4144C30.181 19.4804 30.3775 19.5093 30.574 19.4993H32.5139C33.2173 26.3527 38.6895 31.8332 45.5326 32.5377V34.4805C45.5298 34.6791 45.5664 34.8762 45.6403 35.0604C45.7142 35.2446 45.8239 35.4123 45.9631 35.5536C46.1023 35.695 46.2682 35.8073 46.451 35.8839C46.6339 35.9605 46.8302 36 47.0284 36C47.2266 36 47.4229 35.9605 47.6058 35.8839C47.7887 35.8073 47.9545 35.695 48.0937 35.5536C48.2329 35.4123 48.3426 35.2446 48.4165 35.0604C48.4905 34.8762 48.5271 34.6791 48.5243 34.4805V32.5377C55.3674 31.8332 60.8395 26.3527 61.5429 19.4993H63.4828C63.6811 19.5021 63.8779 19.4654 64.0618 19.3914C64.2457 19.3173 64.4132 19.2074 64.5543 19.068C64.6955 18.9286 64.8076 18.7625 64.8841 18.5794C64.9606 18.3962 65 18.1997 65 18.0011C65 17.8026 64.9606 17.606 64.8841 17.4229C64.8076 17.2397 64.6955 17.0736 64.5543 16.9342C64.4132 16.7948 64.2457 16.6849 64.0618 16.6109C63.8779 16.5369 63.6811 16.5002 63.4828 16.503H61.5429C60.8395 9.64952 55.3674 4.16905 48.5243 3.4646V1.52172C48.5274 1.32104 48.4902 1.12178 48.415 0.935758C48.3398 0.749738 48.228 0.580753 48.0863 0.438835C47.9446 0.296917 47.7759 0.184959 47.5901 0.109606C47.4044 0.0342539 47.2054 -0.00295675 47.005 0.000183409V0.000183409ZM45.5326 6.48427V10.5105C45.5298 10.709 45.5664 10.9061 45.6403 11.0903C45.7142 11.2746 45.8239 11.4422 45.9631 11.5836C46.1023 11.725 46.2682 11.8372 46.451 11.9139C46.6339 11.9905 46.8302 12.03 47.0284 12.03C47.2266 12.03 47.4229 11.9905 47.6058 11.9139C47.7887 11.8372 47.9545 11.725 48.0937 11.5836C48.2329 11.4422 48.3426 11.2746 48.4165 11.0903C48.4905 10.9061 48.5271 10.709 48.5243 10.5105V6.48427C53.7425 7.15325 57.8598 11.2768 58.5278 16.503H54.5077C54.4571 16.5004 54.4064 16.5004 54.3558 16.503C54.1593 16.513 53.9667 16.5616 53.789 16.6461C53.6113 16.7306 53.452 16.8493 53.3201 16.9955C53.1883 17.1417 53.0864 17.3125 53.0205 17.4981C52.9545 17.6837 52.9257 17.8805 52.9356 18.0772C52.9456 18.274 52.9942 18.4668 53.0786 18.6448C53.163 18.8227 53.2816 18.9823 53.4276 19.1143C53.5735 19.2464 53.7441 19.3484 53.9294 19.4144C54.1147 19.4804 54.3112 19.5093 54.5077 19.4993H58.5278C57.8598 24.7254 53.7425 28.849 48.5243 29.518V25.4918C48.5274 25.2911 48.4902 25.0918 48.415 24.9058C48.3398 24.7198 48.228 24.5508 48.0863 24.4089C47.9446 24.267 47.7759 24.155 47.5901 24.0797C47.4044 24.0043 47.2054 23.9671 47.005 23.9702C46.8086 23.9733 46.6147 24.0151 46.4344 24.0932C46.2541 24.1713 46.0909 24.2843 45.9541 24.4256C45.8174 24.5669 45.7098 24.7337 45.6375 24.9167C45.5651 25.0996 45.5295 25.295 45.5326 25.4918V29.518C40.3143 28.849 36.197 24.7254 35.529 19.4993H39.5491C39.7473 19.5021 39.9441 19.4654 40.1281 19.3914C40.312 19.3173 40.4794 19.2074 40.6206 19.068C40.7618 18.9286 40.8739 18.7625 40.9504 18.5794C41.0269 18.3962 41.0663 18.1997 41.0663 18.0011C41.0663 17.8026 41.0269 17.606 40.9504 17.4229C40.8739 17.2397 40.7618 17.0736 40.6206 16.9342C40.4794 16.7948 40.312 16.6849 40.1281 16.6109C39.9441 16.5369 39.7473 16.5002 39.5491 16.503H35.529C36.197 11.2768 40.3143 7.15325 45.5326 6.48427Z" fill="#BD8644"/>
<path d="M40.5041 36.0001C40.3458 36.0026 40.1896 36.0363 40.0444 36.0992C39.8991 36.1622 39.7677 36.2531 39.6575 36.3669C39.5474 36.4808 39.4607 36.6152 39.4024 36.7626C39.3441 36.9099 39.3154 37.0673 39.3179 37.2258V38.7909C33.8054 39.3584 29.3973 43.7732 28.8307 49.2941H27.2679C27.2272 49.292 27.1863 49.292 27.1455 49.2941C26.9873 49.3021 26.8322 49.3413 26.689 49.4093C26.5459 49.4774 26.4175 49.5731 26.3113 49.6908C26.2051 49.8086 26.123 49.9461 26.0699 50.0957C26.0167 50.2452 25.9935 50.4037 26.0016 50.5622C26.0096 50.7207 26.0487 50.8761 26.1167 51.0194C26.1847 51.1628 26.2802 51.2913 26.3978 51.3977C26.5154 51.504 26.6528 51.5862 26.8021 51.6394C26.9514 51.6926 27.1097 51.7158 27.2679 51.7077H28.8307C29.3973 57.2286 33.8054 61.6434 39.3179 62.2109V63.776C39.3156 63.9359 39.3451 64.0947 39.4047 64.2431C39.4642 64.3915 39.5526 64.5266 39.6647 64.6404C39.7769 64.7543 39.9105 64.8448 40.0578 64.9065C40.2051 64.9682 40.3632 65 40.5229 65C40.6826 65 40.8407 64.9682 40.988 64.9065C41.1353 64.8448 41.2689 64.7543 41.381 64.6404C41.4932 64.5266 41.5816 64.3915 41.6411 64.2431C41.7006 64.0947 41.7301 63.9359 41.7279 63.776V62.2109C47.2404 61.6434 51.6485 57.2286 52.2151 51.7077H53.7778C53.9375 51.71 54.0961 51.6805 54.2442 51.6208C54.3924 51.5612 54.5273 51.4726 54.641 51.3604C54.7547 51.2481 54.845 51.1143 54.9066 50.9667C54.9683 50.8192 55 50.6608 55 50.5009C55 50.341 54.9683 50.1826 54.9066 50.0351C54.845 49.8875 54.7547 49.7537 54.641 49.6415C54.5273 49.5292 54.3924 49.4406 54.2442 49.381C54.0961 49.3214 53.9375 49.2918 53.7778 49.2941H52.2151C51.6485 43.7732 47.2404 39.3584 41.7279 38.7909V37.2258C41.7304 37.0642 41.7005 36.9037 41.6399 36.7538C41.5793 36.604 41.4892 36.4678 41.3751 36.3535C41.2609 36.2392 41.125 36.149 40.9754 36.0883C40.8257 36.0276 40.6655 35.9976 40.5041 36.0001V36.0001ZM39.3179 41.2234V44.4668C39.3156 44.6267 39.3451 44.7855 39.4047 44.9339C39.4642 45.0823 39.5526 45.2173 39.6647 45.3312C39.7769 45.4451 39.9105 45.5356 40.0578 45.5973C40.2051 45.659 40.3632 45.6908 40.5229 45.6908C40.6826 45.6908 40.8407 45.659 40.988 45.5973C41.1353 45.5356 41.2689 45.4451 41.381 45.3312C41.4932 45.2173 41.5816 45.0823 41.6411 44.9339C41.7006 44.7855 41.7301 44.6267 41.7279 44.4668V41.2234C45.9315 41.7623 49.2482 45.0841 49.7863 49.2941H46.5479C46.5071 49.292 46.4663 49.292 46.4255 49.2941C46.2672 49.3021 46.1121 49.3413 45.9689 49.4093C45.8258 49.4774 45.6974 49.5731 45.5912 49.6908C45.485 49.8086 45.403 49.9461 45.3498 50.0957C45.2967 50.2452 45.2735 50.4037 45.2815 50.5622C45.2895 50.7207 45.3287 50.8761 45.3967 51.0194C45.4646 51.1628 45.5602 51.2913 45.6778 51.3977C45.7954 51.504 45.9327 51.5862 46.082 51.6394C46.2313 51.6926 46.3896 51.7158 46.5479 51.7077H49.7863C49.2482 55.9177 45.9315 59.2395 41.7279 59.7784V56.535C41.7304 56.3734 41.7005 56.2129 41.6399 56.063C41.5793 55.9132 41.4892 55.777 41.3751 55.6627C41.2609 55.5484 41.125 55.4582 40.9754 55.3975C40.8257 55.3368 40.6655 55.3068 40.5041 55.3094C40.3458 55.3118 40.1896 55.3455 40.0444 55.4084C39.8991 55.4714 39.7677 55.5623 39.6575 55.6762C39.5474 55.79 39.4607 55.9244 39.4024 56.0718C39.3441 56.2191 39.3154 56.3766 39.3179 56.535V59.7784C35.1143 59.2395 31.7976 55.9177 31.2595 51.7077H34.4979C34.6576 51.71 34.8161 51.6805 34.9643 51.6208C35.1125 51.5612 35.2473 51.4726 35.361 51.3604C35.4748 51.2481 35.5651 51.1143 35.6267 50.9667C35.6883 50.8192 35.7201 50.6608 35.7201 50.5009C35.7201 50.341 35.6883 50.1826 35.6267 50.0351C35.5651 49.8875 35.4748 49.7537 35.361 49.6415C35.2473 49.5292 35.1125 49.4406 34.9643 49.381C34.8161 49.3214 34.6576 49.2918 34.4979 49.2941H31.2595C31.7976 45.0841 35.1143 41.7623 39.3179 41.2234Z" fill="#BD8644"/>
<path d="M17.0048 14.0002C16.8192 14.0031 16.6361 14.0425 16.4658 14.1163C16.2955 14.1901 16.1414 14.2968 16.0122 14.4302C15.8831 14.5637 15.7815 14.7213 15.7132 14.894C15.6448 15.0668 15.6112 15.2514 15.6141 15.4372V17.2721C9.15116 17.9374 3.98301 23.1134 3.3187 29.5862H1.48654C1.43874 29.5837 1.39085 29.5837 1.34306 29.5862C1.15751 29.5956 0.975632 29.6415 0.807808 29.7213C0.639984 29.8011 0.489501 29.9133 0.364953 30.0513C0.240405 30.1894 0.144231 30.3507 0.0819244 30.5259C0.0196178 30.7012 -0.00760171 30.8871 0.00182046 31.0729C0.0112426 31.2588 0.0571218 31.4409 0.136838 31.609C0.216554 31.777 0.328546 31.9277 0.466418 32.0524C0.60429 32.1772 0.765342 32.2734 0.940375 32.3358C1.11541 32.3982 1.301 32.4254 1.48654 32.416H3.3187C3.98301 38.8887 9.15116 44.0647 15.6141 44.73V46.5649C15.6114 46.7524 15.646 46.9386 15.7158 47.1126C15.7856 47.2866 15.8893 47.4449 16.0207 47.5784C16.1522 47.712 16.3088 47.818 16.4815 47.8904C16.6542 47.9627 16.8396 48 17.0268 48C17.2141 48 17.3994 47.9627 17.5721 47.8904C17.7449 47.818 17.9015 47.712 18.0329 47.5784C18.1644 47.4449 18.268 47.2866 18.3378 47.1126C18.4076 46.9386 18.4422 46.7524 18.4396 46.5649V44.73C24.9025 44.0647 30.0707 38.8887 30.735 32.416H32.5671C32.7543 32.4186 32.9402 32.384 33.1139 32.3141C33.2876 32.2441 33.4458 32.1403 33.5791 32.0087C33.7124 31.877 33.8183 31.7202 33.8905 31.5472C33.9628 31.3742 34 31.1886 34 31.0011C34 30.8136 33.9628 30.6279 33.8905 30.4549C33.8183 30.282 33.7124 30.1251 33.5791 29.9934C33.4458 29.8618 33.2876 29.758 33.1139 29.6881C32.9402 29.6182 32.7543 29.5835 32.5671 29.5862H30.735C30.0707 23.1134 24.9025 17.9374 18.4396 17.2721V15.4372C18.4425 15.2477 18.4075 15.0595 18.3364 14.8838C18.2653 14.7081 18.1598 14.5485 18.0259 14.4145C17.8921 14.2804 17.7327 14.1747 17.5573 14.1035C17.3819 14.0324 17.194 13.9972 17.0048 14.0002V14.0002ZM15.6141 20.124V23.9266C15.6114 24.1141 15.646 24.3002 15.7158 24.4742C15.7856 24.6482 15.8893 24.8065 16.0207 24.9401C16.1522 25.0736 16.3088 25.1796 16.4815 25.252C16.6542 25.3244 16.8396 25.3616 17.0268 25.3616C17.2141 25.3616 17.3994 25.3244 17.5721 25.252C17.7449 25.1796 17.9015 25.0736 18.0329 24.9401C18.1644 24.8065 18.268 24.6482 18.3378 24.4742C18.4076 24.3002 18.4422 24.1141 18.4396 23.9266V20.124C23.3679 20.7558 27.2565 24.6503 27.8874 29.5862H24.0906C24.0428 29.5837 23.9949 29.5837 23.9471 29.5862C23.7616 29.5956 23.5797 29.6415 23.4119 29.7213C23.244 29.8011 23.0936 29.9133 22.969 30.0513C22.8445 30.1894 22.7483 30.3507 22.686 30.5259C22.6237 30.7012 22.5965 30.8871 22.6059 31.0729C22.6153 31.2588 22.6612 31.4409 22.7409 31.609C22.8206 31.777 22.9326 31.9277 23.0705 32.0524C23.2084 32.1772 23.3694 32.2734 23.5444 32.3358C23.7195 32.3982 23.9051 32.4254 24.0906 32.416H27.8874C27.2565 37.3518 23.3679 41.2463 18.4396 41.8781V38.0756C18.4425 37.886 18.4075 37.6978 18.3364 37.5222C18.2653 37.3465 18.1598 37.1869 18.0259 37.0528C17.8921 36.9188 17.7327 36.8131 17.5573 36.7419C17.3819 36.6707 17.194 36.6356 17.0048 36.6386C16.8192 36.6415 16.6361 36.6809 16.4658 36.7547C16.2955 36.8285 16.1414 36.9352 16.0122 37.0686C15.8831 37.202 15.7815 37.3596 15.7132 37.5324C15.6448 37.7052 15.6112 37.8897 15.6141 38.0756V41.8781C10.6857 41.2463 6.79714 37.3518 6.16629 32.416H9.96306C10.1503 32.4186 10.3361 32.384 10.5099 32.3141C10.6836 32.2441 10.8417 32.1403 10.975 32.0087C11.1083 31.877 11.2142 31.7202 11.2865 31.5472C11.3587 31.3742 11.3959 31.1886 11.3959 31.0011C11.3959 30.8136 11.3587 30.6279 11.2865 30.4549C11.2142 30.282 11.1083 30.1251 10.975 29.9934C10.8417 29.8618 10.6836 29.758 10.5099 29.6881C10.3361 29.6182 10.1503 29.5835 9.96306 29.5862H6.16629C6.79714 24.6503 10.6857 20.7558 15.6141 20.124Z" fill="#BD8644"/>
</svg>
