<svg width="60" height="69" viewBox="0 0 60 69" fill="none" xmlns="http://www.w3.org/2000/svg">
<path d="M60 11.8491V12.9413C60 13.5495 59.5121 14.0335 58.9153 14.0335H43.721H42.593H41.9306V15.7049C41.9306 16.3065 41.4427 16.7971 40.8451 16.7971L33.1352 17.3182C33.2959 16.673 33.3103 15.9988 33.1719 15.3464C33.0919 14.9726 32.9535 14.6134 32.7791 14.2687C32.5752 13.8732 32.3272 13.4914 32 13.1619C31.1704 12.3266 30.0705 11.8643 28.9058 11.8643C28.7385 11.8643 28.5778 11.8716 28.4178 11.8941L28.2722 10.8309C28.5706 10.7866 28.8178 10.7576 28.833 10.7576C28.833 10.7576 29.3642 10.7431 29.3858 10.7431C29.4225 10.7431 41.4434 10.7576 41.4499 10.7576H58.9153C59.5121 10.7568 60 11.2482 60 11.8491Z" fill="#BD8644"/>
<path d="M40.0884 17.8458L28.6939 27.4488C28.082 27.911 27.3691 28.1237 26.6628 28.1382C26.466 28.1897 26.2621 28.2115 26.0588 28.2333C26.0148 28.2333 25.9716 28.2333 25.9276 28.2405C25.8837 28.2405 25.8397 28.2478 25.7964 28.2478C25.6364 28.2478 25.4764 28.2333 25.3157 28.2115C25.2941 28.2115 25.2789 28.2042 25.2573 28.1963C25.0757 28.1672 24.8933 28.123 24.7117 28.0569C24.6605 28.0424 24.6094 28.0279 24.5589 28.0061C24.3629 27.9256 24.1661 27.8377 23.9765 27.7202L23.8237 27.6251L32 19.3924C32.2768 19.1064 32.4952 18.7842 32.684 18.454L39.6732 17.8966C39.8188 17.8966 39.9565 17.8749 40.0884 17.8458Z" fill="#BD8644"/>
<path d="M32.1744 16.1004C32.196 16.5402 32.1304 16.98 31.9848 17.3981C31.832 17.8161 31.5992 18.2116 31.2792 18.5491C31.2576 18.5708 31.2424 18.5933 31.228 18.6151L20.4887 29.4286C19.848 30.0737 19.0032 30.396 18.1664 30.396C17.3217 30.396 16.4849 30.073 15.8441 29.4286C15.8369 29.4213 15.8369 29.4213 15.829 29.414L15.8218 29.4068L7.61667 21.1443L6.8087 20.3307L5.0832 18.5933C3.80169 17.303 3.80169 15.2063 5.0832 13.9167C5.2288 13.7701 5.3816 13.6453 5.54161 13.5357C5.57836 13.5139 5.60719 13.4914 5.64395 13.4696C5.78955 13.3746 5.94235 13.2933 6.10236 13.22C6.16074 13.1982 6.21912 13.1757 6.28399 13.154C6.39354 13.1097 6.50958 13.0807 6.62635 13.0516C6.7496 13.0219 6.86636 13.0001 6.99033 12.9856C7.06313 12.9783 7.13592 12.9711 7.20151 12.9638C7.27431 12.9638 7.3399 12.9493 7.40549 12.9493C7.5655 12.9493 7.71902 12.9711 7.8711 12.9936C8.22787 13.0451 8.56231 13.1547 8.89025 13.3238C8.91187 13.331 8.93422 13.3455 8.95584 13.3535C9.23261 13.5074 9.49425 13.6837 9.72705 13.9182L9.77823 13.9624L14.7796 18.9983L15.7115 19.9367L18.165 22.4071L21.8055 18.7414L22.9559 17.5904L26.5813 13.9399C27.222 13.2947 28.0596 12.9645 28.9043 12.9645C29.7411 12.9645 30.5858 13.2947 31.2266 13.9399C31.5178 14.2331 31.7362 14.5778 31.8969 14.9371C32.0648 15.3087 32.152 15.7049 32.1744 16.1004Z" fill="#BD8644"/>
<path d="M28.2715 10.8301L28.4171 11.8933C27.6019 11.9812 26.8444 12.3034 26.1964 12.8172C26.0581 12.9195 25.9269 13.0371 25.8036 13.1619L23.5318 15.4487L22.0031 16.9887L21.2751 17.7217L21.2167 17.7805L21.1583 17.7435L16.069 18.7479L10.6309 13.2715V13.2643L10.4997 13.1394C10.3765 13.0146 10.2446 12.8978 10.1141 12.7947C10.1437 12.7947 10.1653 12.7875 10.1941 12.7875H12.6555H15.6842L25.8548 11.1894L27.1147 10.984C27.1147 10.984 27.7691 10.8962 28.2715 10.8301Z" fill="#BD8644"/>
<path d="M18.7704 0.00217722C23.0878 0.00943457 26.5899 3.54304 26.582 7.89019C26.582 8.16888 26.5676 8.43304 26.538 8.69648C26.5236 8.81405 26.502 8.91638 26.4869 9.02669C26.4653 9.18055 26.4508 9.33441 26.4141 9.481C26.3925 9.62035 26.3485 9.74517 26.3117 9.88451C26.3045 9.9208 26.2973 9.96507 26.2822 10.0086L15.594 11.6872H11.9174C11.2846 10.5507 10.9271 9.25312 10.9271 7.86769C10.9271 7.59627 10.9415 7.32484 10.9711 7.0614C10.9711 7.05415 10.9711 7.04689 10.9711 7.03165C11.0006 6.78272 11.0367 6.52581 11.0879 6.27688C11.1095 6.18834 11.1318 6.10851 11.1534 6.01997C11.1974 5.85813 11.2334 5.68976 11.2846 5.52865C11.3135 5.42632 11.3574 5.32327 11.3935 5.2282C11.4446 5.0816 11.4879 4.94226 11.5463 4.80292C11.5902 4.70059 11.6407 4.61277 11.6846 4.51698C11.7502 4.37763 11.8086 4.24555 11.8742 4.11347C11.9254 4.0184 11.983 3.93711 12.0414 3.84204C12.1142 3.71794 12.187 3.58513 12.267 3.46829C12.3254 3.38047 12.391 3.30718 12.4486 3.22662C12.5366 3.10179 12.6238 2.97697 12.7182 2.86012C12.7838 2.78682 12.8494 2.71352 12.9143 2.64748C13.0166 2.52991 13.1182 2.41307 13.2278 2.30276C13.2934 2.22946 13.3734 2.17067 13.439 2.10536C13.5557 2.0023 13.6646 1.89272 13.7813 1.78966C13.8613 1.73088 13.9413 1.67209 14.0213 1.61331C14.1453 1.51824 14.2614 1.42317 14.3853 1.34188C14.4733 1.2831 14.5605 1.2323 14.6549 1.17351C14.7781 1.10021 15.2301 0.851287 15.3317 0.79976C15.4549 0.740976 15.9357 0.535593 16.0452 0.492048C16.1692 0.447779 16.6636 0.294648 16.7804 0.264893C16.9188 0.228607 17.05 0.184337 17.1811 0.161839C17.3051 0.13281 17.4291 0.117569 17.5523 0.103054C17.6907 0.0812823 17.8219 0.0515273 17.9603 0.0370126C18.0835 0.0297552 18.2154 0.0297551 18.3459 0.021772C18.4843 0.0145147 18.6155 0 18.7538 0C18.7632 0.00217721 18.7632 0.00217722 18.7704 0.00217722Z" fill="#BD8644"/>
<path d="M23.5686 48.7077L23.3502 63.3843C23.3213 65.5245 21.5742 67.2336 19.448 67.2038L19.0617 67.1965C16.9433 67.1668 15.2467 65.4076 15.2762 63.2674L15.4802 49.0386L12.182 42.3895L12.4876 40.0729C14.7587 39.9343 16.921 38.8929 18.6321 37.178L23.1239 46.238C23.4295 46.8542 23.5606 47.5872 23.5311 48.3274C23.5469 48.4515 23.5686 48.5764 23.5686 48.7077Z" fill="#BD8644"/>
<path d="M22.0614 29.3988L19.7384 33.8265C19.6368 34.0319 19.52 34.23 19.404 34.4202C19.36 34.4935 19.3167 34.5523 19.28 34.6176C19.2 34.7424 19.12 34.8672 19.04 34.9913C18.9895 35.0653 18.9311 35.1379 18.8728 35.2119C18.8 35.3143 18.7272 35.4246 18.6472 35.5197C18.5816 35.6002 18.5239 35.6735 18.4576 35.7468C18.3848 35.8346 18.3048 35.9297 18.2248 36.0175C18.1888 36.0618 18.152 36.0981 18.116 36.1423C18.0864 36.1721 18.0576 36.2011 18.0288 36.2302C17.9415 36.318 17.8615 36.4065 17.7815 36.4871C17.7087 36.5531 17.6359 36.6199 17.5703 36.6852C17.4824 36.765 17.4031 36.839 17.3152 36.9123C17.2424 36.9784 17.1624 37.0372 17.0896 37.1032C17.0024 37.1693 16.9152 37.2426 16.8272 37.3086C16.7472 37.3674 16.6672 37.4254 16.5872 37.477C16.5 37.543 16.4121 37.6018 16.3177 37.6599C16.2377 37.7114 16.1577 37.7629 16.0705 37.8144C15.976 37.8725 15.8888 37.924 15.7937 37.9755C15.7065 38.0198 15.6265 38.0634 15.5385 38.1149C15.4441 38.1592 15.349 38.2027 15.2473 38.247C15.1601 38.2912 15.0729 38.3275 14.9857 38.3638C14.8913 38.4081 14.7889 38.4444 14.6945 38.4814C14.6073 38.5184 14.5129 38.5474 14.425 38.5765C14.3226 38.6135 14.221 38.6425 14.1266 38.6723C14.0321 38.7013 13.937 38.7231 13.8498 38.7456C13.7482 38.7753 13.6458 38.7971 13.5442 38.8196C13.4498 38.8341 13.3546 38.8559 13.2602 38.8704C13.1579 38.8921 13.0562 38.9074 12.9467 38.9146C12.8595 38.9299 12.765 38.9437 12.6699 38.9517C12.5611 38.9589 12.4587 38.9662 12.3499 38.9734C12.2555 38.9734 12.1603 38.9807 12.0659 38.9807C12.0364 38.9807 12.0075 38.9887 11.9787 38.9887C11.8259 38.9887 11.6803 38.9807 11.5347 38.9734L11.3163 40.6303L8.05489 65.5622C8.02606 65.8191 7.96768 66.068 7.89488 66.3097C7.86533 66.3837 7.82929 66.4563 7.80046 66.5369C7.74208 66.6907 7.6837 66.8373 7.60441 66.9839C7.56045 67.0717 7.50207 67.145 7.45161 67.2256C7.37161 67.3431 7.2916 67.468 7.20439 67.5848C7.1388 67.6581 7.06601 67.7314 6.99321 67.8047C6.89879 67.9005 6.80365 68.0028 6.70202 68.0914C6.62202 68.1574 6.53481 68.2162 6.45408 68.2743C6.33732 68.3548 6.22848 68.4288 6.11172 68.4949C6.0173 68.5529 5.92216 68.5972 5.82774 68.6408C5.71098 68.6923 5.58773 68.7438 5.45655 68.7874C5.3542 68.8244 5.25258 68.8534 5.15095 68.8752C5.01977 68.9122 4.88139 68.934 4.75021 68.9557C4.64137 68.971 4.53182 68.9775 4.42226 68.9855C4.35667 68.9855 4.29901 69 4.23342 69C4.09504 69 3.94224 68.9927 3.79664 68.9782L3.41824 68.934C1.30642 68.6923 -0.215103 66.7785 0.0249102 64.6536L3.6943 36.5466C3.78871 35.7178 1.97601 30.396 5.05581 26.027L7.08691 22.164L13.5298 28.6513L15.2553 30.3742C16.056 31.0927 17.0831 31.4955 18.1679 31.4955C19.3326 31.4955 20.4325 31.0332 21.2621 30.2051L22.0614 29.3988Z" fill="#BD8644"/>
<path d="M19.892 19.1137L18.1665 20.8511L17.0017 19.6856L19.892 19.1137Z" fill="#BD8644"/>
</svg>
