<svg width="48" height="48" viewBox="0 0 48 48" fill="none" xmlns="http://www.w3.org/2000/svg">
<path d="M24.0067 0.000244546C23.7448 0.00433747 23.4862 0.0600591 23.2458 0.164228C23.0054 0.268396 22.7878 0.418972 22.6055 0.607357C22.4232 0.795742 22.2797 1.01825 22.1833 1.26217C22.0868 1.50608 22.0393 1.76664 22.0434 2.02896V4.61947C12.9193 5.55873 5.62307 12.866 4.68523 22.004H2.09864C2.03117 22.0006 1.96356 22.0006 1.89608 22.004C1.63413 22.0173 1.37736 22.0821 1.14043 22.1948C0.903506 22.3075 0.69106 22.4658 0.515227 22.6607C0.339395 22.8556 0.20362 23.0833 0.115658 23.3307C0.0276957 23.5782 -0.0107318 23.8406 0.00257006 24.103C0.0158719 24.3653 0.0806426 24.6224 0.193183 24.8597C0.305724 25.097 0.46383 25.3097 0.658473 25.4858C0.853116 25.6619 1.08048 25.7978 1.32759 25.8859C1.57469 25.9739 1.8367 26.0124 2.09864 25.999H4.68523C5.62307 35.137 12.9193 42.4443 22.0434 43.3835V45.974C22.0397 46.2387 22.0885 46.5015 22.187 46.7472C22.2856 46.9928 22.4319 47.2164 22.6175 47.4049C22.8031 47.5934 23.0242 47.7431 23.268 47.8452C23.5119 47.9474 23.7736 48 24.0379 48C24.3022 48 24.5639 47.9474 24.8077 47.8452C25.0516 47.7431 25.2727 47.5934 25.4583 47.4049C25.6438 47.2164 25.7902 46.9928 25.8887 46.7472C25.9873 46.5015 26.0361 46.2387 26.0324 45.974V43.3835C35.1565 42.4443 42.4527 35.137 43.3905 25.999H45.9771C46.2414 26.0028 46.5038 25.9538 46.7491 25.8551C46.9943 25.7564 47.2175 25.6099 47.4058 25.424C47.594 25.2382 47.7434 25.0167 47.8455 24.7725C47.9475 24.5283 48 24.2662 48 24.0015C48 23.7368 47.9475 23.4747 47.8455 23.2305C47.7434 22.9863 47.594 22.7648 47.4058 22.579C47.2175 22.3931 46.9943 22.2466 46.7491 22.1479C46.5038 22.0492 46.2414 22.0003 45.9771 22.004H43.3905C42.4527 12.866 35.1565 5.55873 26.0324 4.61947V2.02896C26.0365 1.76139 25.987 1.4957 25.8867 1.24768C25.7864 0.999651 25.6373 0.774338 25.4484 0.585114C25.2594 0.39589 25.0345 0.246612 24.7868 0.146142C24.5392 0.0456719 24.2739 -0.00394233 24.0067 0.000244546V0.000244546ZM22.0434 8.64569V14.014C22.0397 14.2787 22.0885 14.5415 22.187 14.7871C22.2856 15.0327 22.4319 15.2563 22.6175 15.4448C22.8031 15.6333 23.0242 15.783 23.268 15.8852C23.5119 15.9873 23.7736 16.0399 24.0379 16.0399C24.3022 16.0399 24.5639 15.9873 24.8077 15.8852C25.0516 15.783 25.2727 15.6333 25.4583 15.4448C25.6438 15.2563 25.7902 15.0327 25.8887 14.7871C25.9873 14.5415 26.0361 14.2787 26.0324 14.014V8.64569C32.99 9.53766 38.4798 15.0358 39.3704 22.004H34.0103C33.9428 22.0006 33.8752 22.0006 33.8077 22.004C33.5457 22.0173 33.289 22.0821 33.0521 22.1948C32.8151 22.3075 32.6027 22.4658 32.4268 22.6607C32.251 22.8556 32.1152 23.0833 32.0273 23.3307C31.9393 23.5782 31.9009 23.8406 31.9142 24.103C31.9275 24.3653 31.9923 24.6224 32.1048 24.8597C32.2173 25.097 32.3754 25.3097 32.5701 25.4858C32.7647 25.6619 32.9921 25.7978 33.2392 25.8859C33.4863 25.9739 33.7483 26.0124 34.0103 25.999H39.3704C38.4798 32.9672 32.99 38.4653 26.0324 39.3573V33.989C26.0365 33.7215 25.987 33.4558 25.8867 33.2077C25.7864 32.9597 25.6373 32.7344 25.4484 32.5452C25.2594 32.356 25.0345 32.2067 24.7868 32.1062C24.5392 32.0057 24.2739 31.9561 24.0067 31.9603C23.7448 31.9644 23.4862 32.0201 23.2458 32.1243C23.0054 32.2285 22.7878 32.379 22.6055 32.5674C22.4232 32.7558 22.2797 32.9783 22.1833 33.2222C22.0868 33.4661 22.0393 33.7267 22.0434 33.989V39.3573C15.0857 38.4653 9.59596 32.9672 8.70535 25.999H14.0655C14.3298 26.0028 14.5922 25.9538 14.8374 25.8551C15.0827 25.7564 15.3059 25.6099 15.4941 25.424C15.6824 25.2382 15.8318 25.0167 15.9338 24.7725C16.0358 24.5283 16.0884 24.2662 16.0884 24.0015C16.0884 23.7368 16.0358 23.4747 15.9338 23.2305C15.8318 22.9863 15.6824 22.7648 15.4941 22.579C15.3059 22.3931 15.0827 22.2466 14.8374 22.1479C14.5922 22.0492 14.3298 22.0003 14.0655 22.004H8.70535C9.59596 15.0358 15.0857 9.53766 22.0434 8.64569Z" fill="#BD8644"/>
</svg>
