<svg width="26" height="26" viewBox="0 0 26 26" fill="none" xmlns="http://www.w3.org/2000/svg">
<path fill-rule="evenodd" clip-rule="evenodd" d="M2.88751 11.5549L7.59202 8.83197L10.5022 13.8852L5.7977 16.6081L2.88751 11.5549Z" stroke="#BD8644" stroke-width="1.00157" stroke-linecap="round" stroke-linejoin="round"/>
<path d="M7.6461 15.539L8.61637 17.2237L3.91081 19.9472L1 14.893L3.85653 13.2397" stroke="#BD8644" stroke-linejoin="round"/>
<path d="M5.79361 16.6022L8.62351 17.2197" stroke="#BD8644"/>
<path d="M6.81879 7.48813L16.9041 25" stroke="#BD8644" stroke-linecap="round" stroke-linejoin="round"/>
<path fill-rule="evenodd" clip-rule="evenodd" d="M23.1125 11.555L18.408 8.83197L15.4978 13.8852L20.2023 16.6082L23.1125 11.555Z" stroke="#BD8644" stroke-width="1.00157" stroke-linecap="round" stroke-linejoin="round"/>
<path d="M18.3539 15.5391L17.3836 17.2238L22.0892 19.9473L25 14.8931L22.1435 13.2397" stroke="#BD8644" stroke-linejoin="round"/>
<path d="M20.2064 16.6022L17.3765 17.2197" stroke="#BD8644"/>
<path d="M19.1812 7.48813L9.09595 25" stroke="#BD8644" stroke-linecap="round" stroke-linejoin="round"/>
<path d="M4.44302 3.33569L5.49598 5.16402" stroke="#BD8644" stroke-linecap="round" stroke-linejoin="round"/>
<path d="M21.5841 3.33569L20.5311 5.16402" stroke="#BD8644" stroke-linecap="round" stroke-linejoin="round"/>
<path d="M13.1291 1L13.1282 3.11167" stroke="#BD8644" stroke-linecap="round" stroke-linejoin="round"/>
<path d="M8.68381 1.5882L9.22746 3.62822" stroke="#BD8644" stroke-linecap="round" stroke-linejoin="round"/>
<path d="M17.6001 1.5882L17.0564 3.62822" stroke="#BD8644" stroke-linecap="round" stroke-linejoin="round"/>
</svg>
