<svg width="85" height="65" viewBox="0 0 85 65" fill="none" xmlns="http://www.w3.org/2000/svg">
<path d="M26.779 0H0V8.813H26.779V0Z" fill="#BD8644"/>
<path d="M55.395 0H28.615V8.813H55.395V0Z" fill="#BD8644"/>
<path d="M83.977 0H57.198V8.813H83.977V0Z" fill="#BD8644"/>
<path d="M26.796 22.17H0.0170288V30.983H26.796V22.17Z" fill="#BD8644"/>
<path d="M55.41 22.17H28.631V30.983H55.41V22.17Z" fill="#BD8644"/>
<path d="M83.992 22.17H57.213V30.983H83.992V22.17Z" fill="#BD8644"/>
<path d="M26.828 44.423H0.0490112V53.236H26.828V44.423Z" fill="#BD8644"/>
<path d="M55.442 44.423H28.664V53.236H55.442V44.423Z" fill="#BD8644"/>
<path d="M84.024 44.423H57.245V53.236H84.024V44.423Z" fill="#BD8644"/>
<path d="M42.005 11H15.225V19.813H42.005V11Z" fill="#BD8644"/>
<path d="M70.587 11H43.808V19.813H70.587V11Z" fill="#BD8644"/>
<path d="M13.39 11H0V19.813H13.39V11Z" fill="#BD8644"/>
<path d="M83.977 11H72.471V19.813H83.977V11Z" fill="#BD8644"/>
<path d="M42.053 33.254H15.273V42.067H42.053V33.254Z" fill="#BD8644"/>
<path d="M70.635 33.254H43.856V42.067H70.635V33.254Z" fill="#BD8644"/>
<path d="M13.438 33.254H0.0479736V42.067H13.438V33.254Z" fill="#BD8644"/>
<path d="M84.024 33.254H72.518V42.067H84.024V33.254Z" fill="#BD8644"/>
<path d="M42.07 55.754H15.29V64.567H42.07V55.754Z" fill="#BD8644"/>
<path d="M70.651 55.754H43.873V64.567H70.651V55.754Z" fill="#BD8644"/>
<path d="M13.455 55.754H0.0650024V64.567H13.455V55.754Z" fill="#BD8644"/>
<path d="M84.042 55.754H72.536V64.567H84.042V55.754Z" fill="#BD8644"/>
</svg>
