<svg width="72" height="144" viewBox="0 0 72 144" fill="none" xmlns="http://www.w3.org/2000/svg">
<path d="M24 2.39999L24 14.4L21.6 14.4C20.9635 14.4 20.353 14.6528 19.9029 15.1029C19.4529 15.553 19.2 16.1635 19.2 16.8L19.2 67.2L2.4 67.2C1.76348 67.2 1.15303 67.4529 0.702939 67.9029C0.252851 68.353 -3.27995e-06 68.9635 -3.25213e-06 69.6L-1.78342e-06 103.2C-1.7556e-06 103.837 0.252853 104.447 0.70294 104.897C1.15303 105.347 1.76348 105.6 2.4 105.6L19.2 105.6L19.2 141.6C19.2 142.237 19.4529 142.847 19.9029 143.297C20.353 143.747 20.9635 144 21.6 144L50.4 144C50.7648 144 51.1248 143.917 51.4527 143.757C51.7805 143.597 52.0676 143.364 52.292 143.077C52.5164 142.789 52.6724 142.454 52.7479 142.097C52.8235 141.74 52.8167 141.371 52.728 141.017L43.8744 105.6L60 105.6C60.6365 105.6 61.247 105.347 61.6971 104.897C62.1472 104.447 62.4 103.837 62.4 103.2L62.4 93.6C62.4 92.9635 62.1472 92.353 61.6971 91.9029C61.247 91.4528 60.6365 91.2 60 91.2L43.2 91.2L43.2 86.0328L69.996 81.5664C70.556 81.4727 71.0646 81.1836 71.4315 80.7503C71.7984 80.317 71.9998 79.7677 72 79.2L72 64.8C71.9999 64.4514 71.9238 64.107 71.7771 63.7907C71.6304 63.4745 71.4166 63.194 71.1505 62.9687C70.8844 62.7435 70.5724 62.579 70.2362 62.4866C69.9001 62.3941 69.5478 62.3761 69.204 62.4336L43.2 66.768L43.2 16.8C43.2 16.1635 42.9471 15.553 42.4971 15.1029C42.047 14.6528 41.4365 14.4 40.8 14.4L38.4 14.4L38.4 2.39999C38.4 1.76347 38.1471 1.15302 37.6971 0.702935C37.247 0.252847 36.6365 -7.32348e-06 36 -7.29566e-06L26.4 -6.87603e-06C25.7635 -6.8482e-06 25.153 0.252848 24.7029 0.702935C24.2529 1.15302 24 1.76347 24 2.39999ZM38.4 100.8L24 100.8L24 72L38.4 72L38.4 100.8ZM19.2 81.6L19.2 91.2L14.4 91.2L14.4 81.6L19.2 81.6ZM4.8 100.8L4.8 72L19.2 72L19.2 76.8L12 76.8C11.3635 76.8 10.753 77.0529 10.3029 77.5029C9.85285 77.953 9.6 78.5635 9.6 79.2L9.6 93.6C9.6 94.2365 9.85285 94.847 10.3029 95.2971C10.753 95.7471 11.3635 96 12 96L19.2 96L19.2 100.8L4.8 100.8ZM24 139.2L24 105.6L38.9256 105.6L47.3256 139.2L24 139.2ZM57.6 96L57.6 100.8L43.2 100.8L43.2 96L57.6 96ZM67.2 77.1672L43.2 81.1656L43.2 71.6328L67.2 67.6344L67.2 77.1672ZM38.4 19.2L38.4 24L28.8 24L28.8 28.8L38.4 28.8L38.4 33.6L28.8 33.6L28.8 38.4L38.4 38.4L38.4 43.2L28.8 43.2L28.8 48L38.4 48L38.4 67.2L24 67.2L24 19.2L38.4 19.2ZM33.6 4.79999L33.6 14.4L28.8 14.4L28.8 4.79999L33.6 4.79999Z" fill="white"/>
<path d="M24 2.39999L24 14.4L21.6 14.4C20.9635 14.4 20.353 14.6528 19.9029 15.1029C19.4529 15.553 19.2 16.1635 19.2 16.8L19.2 67.2L2.4 67.2C1.76348 67.2 1.15303 67.4529 0.702939 67.9029C0.252851 68.353 -3.27995e-06 68.9635 -3.25213e-06 69.6L-1.78342e-06 103.2C-1.7556e-06 103.837 0.252853 104.447 0.70294 104.897C1.15303 105.347 1.76348 105.6 2.4 105.6L19.2 105.6L19.2 141.6C19.2 142.237 19.4529 142.847 19.9029 143.297C20.353 143.747 20.9635 144 21.6 144L50.4 144C50.7648 144 51.1248 143.917 51.4527 143.757C51.7805 143.597 52.0676 143.364 52.292 143.077C52.5164 142.789 52.6724 142.454 52.7479 142.097C52.8235 141.74 52.8167 141.371 52.728 141.017L43.8744 105.6L60 105.6C60.6365 105.6 61.247 105.347 61.6971 104.897C62.1472 104.447 62.4 103.837 62.4 103.2L62.4 93.6C62.4 92.9635 62.1472 92.353 61.6971 91.9029C61.247 91.4528 60.6365 91.2 60 91.2L43.2 91.2L43.2 86.0328L69.996 81.5664C70.556 81.4727 71.0646 81.1836 71.4315 80.7503C71.7984 80.317 71.9998 79.7677 72 79.2L72 64.8C71.9999 64.4514 71.9238 64.107 71.7771 63.7907C71.6304 63.4745 71.4166 63.194 71.1505 62.9687C70.8844 62.7435 70.5724 62.579 70.2362 62.4866C69.9001 62.3941 69.5478 62.3761 69.204 62.4336L43.2 66.768L43.2 16.8C43.2 16.1635 42.9471 15.553 42.4971 15.1029C42.047 14.6528 41.4365 14.4 40.8 14.4L38.4 14.4L38.4 2.39999C38.4 1.76347 38.1471 1.15302 37.6971 0.702935C37.247 0.252847 36.6365 -7.32348e-06 36 -7.29566e-06L26.4 -6.87603e-06C25.7635 -6.8482e-06 25.153 0.252848 24.7029 0.702935C24.2529 1.15302 24 1.76347 24 2.39999ZM38.4 100.8L24 100.8L24 72L38.4 72L38.4 100.8ZM19.2 81.6L19.2 91.2L14.4 91.2L14.4 81.6L19.2 81.6ZM4.8 100.8L4.8 72L19.2 72L19.2 76.8L12 76.8C11.3635 76.8 10.753 77.0529 10.3029 77.5029C9.85285 77.953 9.6 78.5635 9.6 79.2L9.6 93.6C9.6 94.2365 9.85285 94.847 10.3029 95.2971C10.753 95.7471 11.3635 96 12 96L19.2 96L19.2 100.8L4.8 100.8ZM24 139.2L24 105.6L38.9256 105.6L47.3256 139.2L24 139.2ZM57.6 96L57.6 100.8L43.2 100.8L43.2 96L57.6 96ZM67.2 77.1672L43.2 81.1656L43.2 71.6328L67.2 67.6344L67.2 77.1672ZM38.4 19.2L38.4 24L28.8 24L28.8 28.8L38.4 28.8L38.4 33.6L28.8 33.6L28.8 38.4L38.4 38.4L38.4 43.2L28.8 43.2L28.8 48L38.4 48L38.4 67.2L24 67.2L24 19.2L38.4 19.2ZM33.6 4.79999L33.6 14.4L28.8 14.4L28.8 4.79999L33.6 4.79999Z" fill="white"/>
<path d="M28.8 76.8L28.8 81.6L33.6 81.6L33.6 76.8L28.8 76.8Z" fill="white"/>
<path d="M28.8 76.8L28.8 81.6L33.6 81.6L33.6 76.8L28.8 76.8Z" fill="white"/>
<path d="M28.8 86.4L28.8 91.2L33.6 91.2L33.6 86.4L28.8 86.4Z" fill="white"/>
<path d="M28.8 86.4L28.8 91.2L33.6 91.2L33.6 86.4L28.8 86.4Z" fill="white"/>
<path d="M31.2 134.4L40.8 134.4L40.8 129.6L33.6 129.6L33.6 115.2L28.8 115.2L28.8 132C28.8 132.637 29.0529 133.247 29.503 133.697C29.9531 134.147 30.5635 134.4 31.2 134.4Z" fill="white"/>
<path d="M31.2 134.4L40.8 134.4L40.8 129.6L33.6 129.6L33.6 115.2L28.8 115.2L28.8 132C28.8 132.637 29.0529 133.247 29.503 133.697C29.9531 134.147 30.5635 134.4 31.2 134.4Z" fill="white"/>
</svg>
