<svg width="67" height="67" viewBox="0 0 67 67" fill="none" xmlns="http://www.w3.org/2000/svg">
<path d="M26.6728 15.2348H13.0088L16.5069 10.8405H30.1716L26.6728 15.2348ZM51.2786 14.9055C55.0943 12.7542 56.4531 7.90275 54.3124 4.06807C52.1724 0.232707 47.3437 -1.13216 43.5274 1.01984C39.7111 3.17185 38.3523 8.02395 40.4943 11.8586C42.6343 15.6927 47.463 17.0568 51.2786 14.9055ZM3.49808 28.9676L0 33.3612H13.6647L17.1628 28.9669H3.49808V28.9676ZM23.0655 19.9037H9.40081L5.90272 24.298H19.5674L23.0655 19.9037ZM64.1661 30.1951L54.8779 29.8126L48.3286 18.1497L43.7451 15.523C42.9632 15.1136 40.2524 13.5366 37.5684 15.6812L20.4163 30.0133C19.1339 31.2044 18.3293 33.0211 20.023 34.9779C21.2016 36.3043 23.239 36.1791 24.4839 35.2155L35.9838 24.8205L34.4951 34.2729L27.5358 47.034L17.3417 52.5103C14.2516 54.7647 15.4965 57.314 16.0017 58.0203C16.7581 59.0828 18.872 60.6046 21.3382 59.068L34.1721 51.2593L39.0364 42.2479L47.6238 49.2143L47.1233 63.4542C47.1876 65.6499 49.1367 66.9865 50.8418 67C53.0635 66.9448 54.4625 65.5375 54.6669 63.1182L55.0635 51.1596C55.1238 48.9066 55.5801 46.1378 53.9205 44.6888L45.2681 36.9312L46.8359 28.9609L52.0049 36.1569L63.4392 36.7016C65.8324 36.7905 66.9004 35.0203 66.9869 33.5483C67.1611 31.7882 65.5705 30.3904 64.1661 30.1951Z" fill="#BD8644"/>
</svg>
